<svg xmlns="http://www.w3.org/2000/svg" xmlns:xlink="http://www.w3.org/1999/xlink" viewBox="0 0 2048 683" width="2048" height="683"><defs><marker id="arrow" viewBox="0 0 10 10" refX="8" refY="5" markerWidth="5" markerHeight="5" orient="auto"><path d="M0 0L10 5L0 10Z" fill="#F0F7FA"/></marker></defs><g transform="translate(2048 0) scale(-1 1)"><path d="M656.500,310.670C696.767,318.003 732.000,341.135 762.200,375.722" fill="none" stroke="#FF3B3B" stroke-width="13" stroke-linecap="round"/><path d="M762.200,375.722C832.667,471.705 958.500,553.228 1134.667,554.906C1235.333,555.792 1295.733,523.530 1336.000,480.748" fill="none" stroke="#19C567" stroke-width="13" stroke-linecap="round"/><path d="M1336.000,480.748C1386.333,421.016 1436.667,334.026 1507.133,274.437" fill="none" stroke="#FFD600" stroke-width="13" stroke-linecap="round"/><path d="M1507.133,274.437C1587.667,244.662 1763.833,269.020 1814.167,344.841C1854.433,405.862 1799.067,480.388 1703.433,525.659" fill="none" stroke="#2F69FF" stroke-width="13" stroke-linecap="round"/><path d="M1703.433,525.659C1638.000,555.555 1537.333,568.667 1441.700,561.027" fill="none" stroke="#F454A2" stroke-width="13" stroke-linecap="round"/><path d="M1441.700,561.027C1401.433,557.165 1371.233,549.743 1346.067,538.684" fill="none" stroke="#FF3B3B" stroke-width="13" stroke-linecap="round"/><path d="M1346.067,538.684C1285.667,508.788 1235.333,452.639 1215.200,396.584" fill="none" stroke="#19C567" stroke-width="13" stroke-linecap="round" marker-end="url(#arrow)"/></g></svg>